<?xml version="1.0" standalone="no"?>
<!DOCTYPE svg PUBLIC "-//W3C//DTD SVG 20010904//EN"
 "http://www.w3.org/TR/2001/REC-SVG-20010904/DTD/svg10.dtd">
<svg version="1.0" xmlns="http://www.w3.org/2000/svg"
 width="604.000000pt" height="371.000000pt" viewBox="0 0 604.000000 371.000000"
 preserveAspectRatio="xMidYMid meet">

<g transform="translate(0.000000,371.000000) scale(0.100000,-0.100000)"
fill="#000000" stroke="none">
<path d="M2164 2857 c-3 -8 -4 -52 -2 -98 l3 -84 73 -7 c113 -10 133 -35 137
-172 l3 -91 -87 -41 c-102 -48 -201 -109 -201 -125 0 -13 119 -68 213 -99 61
-20 89 -41 74 -56 -9 -10 -150 37 -244 81 l-92 43 -57 -61 c-32 -35 -71 -91
-88 -127 -27 -58 -30 -75 -31 -165 0 -92 3 -105 31 -165 34 -71 101 -161 138
-185 21 -14 28 -13 107 24 97 45 226 88 235 78 16 -16 -10 -37 -73 -57 -95
-31 -204 -81 -200 -93 6 -18 142 -95 234 -133 68 -27 93 -43 97 -58 9 -38 82
-142 137 -197 88 -87 196 -146 314 -174 80 -19 236 -19 310 0 167 44 314 160
390 308 l40 78 90 36 c119 48 255 123 255 142 0 19 -205 97 -345 131 -115 28
-120 28 -135 -22 -35 -118 -129 -256 -215 -315 -30 -21 -54 -41 -55 -44 0 -5
80 2 159 16 l43 7 -23 -31 c-52 -70 -136 -106 -249 -106 -72 0 -93 4 -140 27
-52 25 -139 102 -129 112 3 3 23 -1 44 -9 22 -8 50 -14 63 -15 l22 0 0 225 0
225 -90 -7 c-87 -6 -90 -5 -90 16 0 18 6 21 38 21 20 0 61 3 90 6 l52 7 0 142
c0 165 7 155 -106 155 -67 0 -74 2 -74 20 0 19 7 20 90 20 l90 0 0 231 0 231
-37 -7 c-31 -5 -82 -25 -135 -53 -5 -2 -8 32 -8 75 0 117 37 153 155 153 l56
0 -3 98 -3 97 -433 3 c-355 2 -433 0 -438 -11z m826 -87 l0 -50 -114 0 c-153
0 -213 -23 -252 -96 -18 -33 -34 -44 -34 -24 0 20 -66 84 -105 101 -31 15 -66
19 -157 19 l-118 0 0 50 0 50 390 0 390 0 0 -50z m-463 -112 c14 -13 34 -40
44 -60 18 -35 19 -67 19 -615 0 -638 1 -652 63 -767 94 -176 297 -278 499
-248 112 16 198 60 278 141 36 36 74 85 84 109 10 23 23 42 28 42 13 0 9 -12
-22 -67 -63 -109 -193 -207 -329 -247 -69 -20 -215 -21 -299 -1 -34 8 -95 31
-135 51 -96 49 -219 172 -264 264 -67 139 -66 125 -72 777 l-6 592 -34 35 -34
35 34 3 c47 5 116 -16 146 -44z m323 42 c0 -4 -11 -17 -24 -29 -14 -13 -29
-35 -35 -50 -8 -19 -11 -216 -9 -671 l3 -645 28 -56 c34 -70 109 -142 185
-177 50 -24 69 -27 157 -27 86 0 108 4 155 26 69 32 120 76 157 134 25 39 43
56 43 40 0 -9 -32 -58 -69 -104 -125 -157 -391 -208 -582 -110 -52 26 -142
111 -179 169 -71 110 -70 104 -70 766 0 477 3 601 14 627 15 38 76 95 109 102
49 10 117 13 117 5z"/>
<path d="M3264 2857 c-3 -8 -4 -52 -2 -98 l3 -84 71 -6 c81 -8 108 -21 129
-65 19 -40 20 -134 3 -134 -7 0 -53 7 -103 15 -146 24 -145 26 -46 -72 73 -72
96 -103 130 -173 22 -47 44 -101 47 -119 4 -18 13 -35 20 -38 47 -18 464 124
464 157 0 21 -167 113 -302 168 -27 11 -28 14 -28 93 0 126 39 169 153 169 65
0 67 3 67 100 0 110 29 100 -306 100 -236 0 -296 -3 -300 -13z m556 -87 l0
-50 -65 0 c-80 0 -124 -17 -160 -63 l-28 -35 -21 32 c-32 47 -79 66 -163 66
l-73 0 0 50 0 50 255 0 255 0 0 -50z m-279 -136 c25 -41 28 -184 4 -184 -12 0
-15 14 -15 65 0 71 -18 125 -53 164 l-22 24 33 -19 c18 -10 42 -33 53 -50z
m106 38 c-32 -35 -47 -90 -47 -169 0 -56 -3 -74 -11 -66 -7 7 -10 45 -8 103 4
89 5 92 37 121 36 32 54 39 29 11z"/>
<path d="M3051 2271 l1 -231 93 0 c100 0 292 18 312 29 16 8 -21 116 -68 197
-66 118 -190 214 -296 230 l-43 6 1 -231z"/>
<path d="M3967 2179 c-84 -43 -186 -79 -322 -114 l-120 -31 5 -65 c7 -91 6
-142 -3 -235 l-7 -80 67 -13 c90 -18 291 -85 364 -122 47 -23 64 -27 79 -19
32 17 111 121 144 190 28 59 31 74 31 165 0 96 -2 103 -38 176 -23 46 -57 95
-90 126 l-52 51 -58 -29z"/>
<path d="M3410 2019 c-25 -4 -106 -11 -180 -15 -195 -10 -180 3 -180 -158 0
-74 4 -137 9 -140 5 -4 42 -8 83 -11 60 -5 231 -20 312 -28 27 -3 36 38 38
168 1 125 -8 196 -25 194 -7 -1 -32 -5 -57 -10z"/>
<path d="M3055 1650 c-2 -4 -3 -103 -2 -221 l2 -214 38 1 c60 2 158 57 219
122 75 82 165 260 142 282 -16 15 -391 43 -399 30z"/>
</g>
</svg>
